<?xml version="1.0" encoding="UTF-8"?>
<svg id="Layer_2" data-name="Layer 2" xmlns="http://www.w3.org/2000/svg" viewBox="0 0 52 62.04">
  <g id="Layer_1-2" data-name="Layer 1">
    <g>
      <path d="M48.37,27.35c-.53.68-1.2,1.45-1.96,2.29-1.68-1.75-3.66-3.68-5.65-5.57.53-.6.99-1.13,1.36-1.59,3.11-3.99,2.52-9.42-1.36-12.65-4.18-3.46-9.01-1.62-11.74,1.55-.75.88-1.85,1.38-3.01,1.38s-2.26-.5-3.01-1.38c-1.75-2.04-4.29-3.43-6.89-3.43-1.64,0-3.31.56-4.83,1.85-3.87,3.29-4.48,8.75-1.41,12.68.37.47.83,1.02,1.38,1.62.38.43.81.89,1.28,1.38,1.56,1.63,3.53,3.55,5.66,5.57.45.43.91.86,1.38,1.29,2.09,1.95,4.3,3.96,6.42,5.84,2.13-1.9,4.35-3.91,6.45-5.86,2.27,2.14,4.19,4.02,5.66,5.57-3.24,3.03-6.4,5.85-8.33,7.56-.58.52-1.25,1.1-2.33,1.43-.47.14-.96.21-1.44.21s-.97-.07-1.45-.21c-1.07-.32-1.74-.91-2.32-1.43-1.93-1.7-5.08-4.52-8.31-7.53-.45-.43-.91-.86-1.37-1.29-2-1.89-3.97-3.82-5.64-5.56-.45-.48-.89-.94-1.29-1.38-.79-.85-1.46-1.63-1.99-2.31C-2.02,20.12-.92,9.75,6.13,3.76c5.82-4.96,13.81-4.93,19.88-.37,6.01-4.47,13.95-4.51,19.79.33,7.15,5.92,8.28,16.3,2.57,23.63Z"/>
      <path d="M45.87,58.29c-2.96,2.52-6.48,3.76-10.03,3.76s-6.86-1.15-9.85-3.39c-6.01,4.48-13.95,4.51-19.79-.33-7.15-5.92-8.28-16.3-2.57-23.63.53-.68,1.19-1.45,1.96-2.29,1.68,1.75,3.66,3.68,5.65,5.57-.54.59-.99,1.12-1.36,1.59-3.11,3.99-2.52,9.43,1.36,12.65,4.18,3.46,9.01,1.62,11.74-1.55.75-.87,1.85-1.38,3.01-1.38s2.26.51,3.01,1.38c2.85,3.32,7.79,4.93,11.72,1.59,3.87-3.29,4.48-8.74,1.41-12.68-.37-.47-.83-1.02-1.38-1.62-.39-.43-.82-.89-1.29-1.38-1.56-1.63-3.53-3.55-5.66-5.57-.45-.43-.91-.86-1.38-1.29-2.09-1.95-4.3-3.96-6.42-5.84-2.13,1.9-4.35,3.91-6.45,5.86-2.27-2.13-4.18-4.02-5.66-5.56.5-.47,1-.94,1.5-1.38,2.7-2.49,5.21-4.73,6.83-6.17.59-.53,1.25-1.11,2.32-1.43.95-.28,1.95-.28,2.9,0,1.07.32,1.74.91,2.33,1.43,1.64,1.44,4.13,3.67,6.82,6.15.49.45.99.91,1.49,1.38.45.43.91.86,1.37,1.29,2,1.89,3.97,3.82,5.64,5.56.45.48.89.94,1.29,1.38.79.85,1.46,1.63,1.99,2.31,5.63,7.23,4.53,17.59-2.52,23.59Z"/>
    </g>
  </g>
</svg>